<svg xmlns="http://www.w3.org/2000/svg" version="1.1" xmlns:xlink="http://www.w3.org/1999/xlink" xmlns:svgjs="http://svgjs.dev/svgjs" width="2000" height="1500" viewBox="0 0 2000 1500"><rect width="2000" height="1500" fill="#463746"></rect><g transform="matrix(0.75,0,0,0.75,249.090909090909,282.7536437246963)"><svg viewBox="0 0 396 247" data-background-color="#463746" preserveAspectRatio="xMidYMid meet" height="1247" width="2000" xmlns="http://www.w3.org/2000/svg" xmlns:xlink="http://www.w3.org/1999/xlink"><g id="tight-bounds" transform="matrix(1,0,0,1,0.2400000000000091,-0.09999999999999432)"><svg viewBox="0 0 395.52 247.2" height="247.2" width="395.52"><g><svg></svg></g><g><svg viewBox="0 0 395.52 247.2" height="247.2" width="395.52"><g transform="matrix(1,0,0,1,75.54432,86.43912123076922)"><svg viewBox="0 0 244.43135999999998 74.32175753846154" height="74.32175753846154" width="244.43135999999998"><g><svg viewBox="0 0 244.43135999999998 74.32175753846154" height="74.32175753846154" width="244.43135999999998"><g><svg viewBox="0 0 244.43135999999998 74.32175753846154" height="74.32175753846154" width="244.43135999999998"><g><svg viewBox="0 0 244.43135999999998 74.32175753846154" height="74.32175753846154" width="244.43135999999998"><g id="textblocktransform"><svg viewBox="0 0 244.43135999999998 74.32175753846154" height="74.32175753846154" width="244.43135999999998" id="textblock"><g><svg viewBox="0 0 244.43135999999998 74.32175753846154" height="74.32175753846154" width="244.43135999999998"><g transform="matrix(1,0,0,1,0,0)"><svg width="244.43135999999998" viewBox="2.48 -34.93 116.99 35.58" height="74.32175753846154" data-palette-color="#ffffff"><path d="M16.18 0.65L16.18 0.65Q11.95 0.65 8.89-1.41 5.83-3.48 4.15-7.24 2.48-11 2.48-16.07L2.48-16.07Q2.48-21.43 4.25-25.06 6.03-28.7 9.14-30.56 12.25-32.43 16.18-32.43L16.18-32.43Q21.45-32.43 24.58-29.81 27.7-27.2 28.73-23.03L28.73-23.03 23.65-22.05Q22.75-24.83 20.8-26.49 18.85-28.15 16.18-28.15L16.18-28.15Q13.83-28.15 11.88-26.8 9.93-25.45 8.75-22.76 7.58-20.08 7.58-16.07L7.58-16.07Q7.58-12.38 8.55-9.59 9.53-6.8 11.43-5.25 13.33-3.7 16.18-3.7L16.18-3.7Q19.65-3.7 21.65-5.56 23.65-7.43 23.65-10.43L23.65-10.43 28.78-10.43Q28.78-6.93 27.21-4.46 25.65-2 22.83-0.68 20 0.65 16.18 0.65ZM57.52 0L52.8 0 52.8-14.1Q52.8-17.23 51.31-18.84 49.82-20.45 47.3-20.45L47.3-20.45Q45.3-20.45 43.81-19.36 42.32-18.28 41.51-16.19 40.7-14.1 40.7-11.1L40.7-11.1 39-11.1Q39-15.53 40.14-18.55 41.27-21.58 43.4-23.14 45.52-24.7 48.5-24.7L48.5-24.7Q51.4-24.7 53.41-23.4 55.42-22.1 56.47-19.71 57.52-17.32 57.52-14.1L57.52-14.1 57.52 0ZM40.7 0L35.95 0 35.95-34.18 40.7-34.18 40.7 0ZM71.3 0L66.55 0 66.55-24.13 71.3-24.13 71.3 0ZM71.3-10.75L70-10.75Q70-15.38 70.96-18.44 71.92-21.5 73.66-23 75.4-24.5 77.75-24.5L77.75-24.5Q78.45-24.5 79.06-24.4 79.67-24.3 80.27-24.13L80.27-24.13 80.09-19.4Q79.42-19.58 78.63-19.71 77.84-19.85 77.2-19.85L77.2-19.85Q75.15-19.85 73.84-18.76 72.55-17.68 71.92-15.64 71.3-13.6 71.3-10.75L71.3-10.75ZM88.02-29.18L88.02-29.18Q86.59-29.18 85.78-29.96 84.97-30.75 84.97-32.1L84.97-32.1Q84.97-33.4 85.78-34.16 86.59-34.93 88.02-34.93L88.02-34.93Q89.42-34.93 90.23-34.16 91.04-33.4 91.04-32.1L91.04-32.1Q91.04-30.75 90.23-29.96 89.42-29.18 88.02-29.18ZM90.39 0L85.64 0 85.64-24.13 90.39-24.13 90.39 0ZM109.62 0.65L109.62 0.65Q106.12 0.65 103.72-0.34 101.32-1.33 100.05-3.09 98.79-4.85 98.74-7.23L98.74-7.23 103.22-7.23Q103.32-5.15 104.88-4.15 106.44-3.15 109.12-3.15L109.12-3.15Q110.54-3.15 111.7-3.6 112.87-4.05 113.55-4.83 114.24-5.6 114.24-6.58L114.24-6.58Q114.24-7.8 113.34-8.51 112.44-9.22 110.44-9.78L110.44-9.78 105.52-11.45Q102.57-12.45 100.99-14.11 99.42-15.78 99.42-18.1L99.42-18.1Q99.42-21.08 102.07-22.89 104.72-24.7 109.09-24.7L109.09-24.7Q113.62-24.7 116.08-22.79 118.54-20.88 118.64-18L118.64-18 114.07-18Q113.89-19.43 112.65-20.19 111.42-20.95 109.09-20.95L109.09-20.95Q106.92-20.95 105.68-20 104.44-19.05 104.44-17.85L104.44-17.85Q104.44-15.7 108.14-14.65L108.14-14.65 113.32-12.83Q116.27-11.88 117.87-10.38 119.47-8.88 119.47-6.58L119.47-6.58Q119.47-4.73 118.24-3.08 117.02-1.43 114.8-0.39 112.59 0.65 109.62 0.65Z" opacity="1" transform="matrix(1,0,0,1,0,0)" fill="#ffffff" class="wordmark-text-0" data-fill-palette-color="primary" id="text-0"></path></svg></g></svg></g></svg></g></svg></g></svg></g></svg></g></svg></g><g><path d="M245.816 0c68.262 0 123.6 55.338 123.6 123.6 0 68.262-55.338 123.6-123.6 123.6-52.03 0-96.552-32.149-114.784-77.666h3.62c18.045 43.623 61.02 74.315 111.164 74.315 66.412 0 120.249-53.837 120.248-120.249 0-66.412-53.837-120.249-120.248-120.249-50.144 0-93.119 30.692-111.164 74.315l-3.62 0c18.232-45.517 62.753-77.666 114.784-77.666z" fill="#eaa79c" stroke="transparent" data-fill-palette-color="tertiary"></path></g></svg></g><defs></defs></svg><rect width="395.52" height="247.2" fill="none" stroke="none" visibility="hidden"></rect></g></svg></g></svg>