<svg xmlns="http://www.w3.org/2000/svg" version="1.1" xmlns:xlink="http://www.w3.org/1999/xlink" xmlns:svgjs="http://svgjs.dev/svgjs" width="2000" height="1999" viewBox="0 0 2000 1999"><g transform="matrix(1,0,0,1,-0.431486880466764,-0.4312711370263287)"><svg viewBox="0 0 343 343" data-background-color="#ffffff" preserveAspectRatio="xMidYMid meet" height="1999" width="2000" xmlns="http://www.w3.org/2000/svg" xmlns:xlink="http://www.w3.org/1999/xlink"><g id="tight-bounds" transform="matrix(1,0,0,1,0.0740000000000407,0.07400000000001228)"><svg viewBox="0 0 342.85155851775386 342.85155851775386" height="342.85155851775386" width="342.85155851775386"><g><svg></svg></g><g><svg viewBox="0 0 342.85155851775386 342.85155851775386" height="342.85155851775386" width="342.85155851775386"><g><path d="M0 171.426c0-94.676 76.75-171.426 171.426-171.426 94.676 0 171.426 76.75 171.426 171.426 0 94.676-76.75 171.426-171.426 171.426-94.676 0-171.426-76.75-171.426-171.426zM171.426 336.453c91.142 0 165.027-73.885 165.027-165.027 0-91.142-73.885-165.027-165.027-165.027-91.142 0-165.027 73.885-165.027 165.027 0 91.142 73.885 165.027 165.027 165.027z" data-fill-palette-color="tertiary" fill="#000000" stroke="transparent"></path><ellipse rx="164.56874808852186" ry="164.56874808852186" cx="171.42577925887693" cy="171.42577925887693" fill="#000000" stroke="transparent" stroke-width="0" fill-opacity="1" data-fill-palette-color="tertiary"></ellipse></g><g transform="matrix(1,0,0,1,64.84655864529837,78.53996062391874)"><svg viewBox="0 0 213.1584412271571 185.77163726991637" height="185.77163726991637" width="213.1584412271571"><g><svg viewBox="0 0 213.1584412271571 185.77163726991637" height="185.77163726991637" width="213.1584412271571"><g><svg viewBox="0 0 213.1584412271571 185.77163726991637" height="185.77163726991637" width="213.1584412271571"><g transform="matrix(1,0,0,1,0,114.81432462127043)"><svg viewBox="0 0 213.1584412271571 70.95731264864592" height="70.95731264864592" width="213.1584412271571"><g id="textblocktransform"><svg viewBox="0 0 213.1584412271571 70.95731264864592" height="70.95731264864592" width="213.1584412271571" id="textblock"><g><svg viewBox="0 0 213.1584412271571 70.95731264864592" height="70.95731264864592" width="213.1584412271571"><g transform="matrix(1,0,0,1,0,0)"><svg width="213.1584412271571" viewBox="2.95 -36.5 111.59 37.150000000000006" height="70.95731264864592" data-palette-color="#ffffff"><path d="M16.2 0.65Q9.9 0.65 6.43-4 2.95-8.65 2.95-17.3L2.95-17.3Q2.95-26 6.5-30.65 10.05-35.3 16.45-35.3L16.45-35.3Q19.1-35.3 21.38-34.63 23.65-33.95 25.03-32.77 26.4-31.6 26.4-30.25L26.4-30.25Q26.4-29.3 25.5-28.6 24.6-27.9 23.15-28.05L23.15-28.05Q22.75-30.65 21.03-32.05 19.3-33.45 16.5-33.45L16.5-33.45Q12-33.45 9.7-29.38 7.4-25.3 7.4-17.3L7.4-17.3Q7.4-9.35 9.7-5.28 12-1.2 16.4-1.2L16.4-1.2Q19.2-1.2 21.3-2.9 23.4-4.6 24-7.65L24-7.65 24.6-7.7Q25.75-7.7 26.55-7.18 27.35-6.65 27.35-5.65L27.35-5.65Q27.35-4 25.78-2.55 24.2-1.1 21.63-0.23 19.05 0.65 16.2 0.65L16.2 0.65ZM54.1-5.7Q54.1-2.1 54.7-0.35L54.7-0.35Q53.7 0.55 52.4 0.55L52.4 0.55Q51.4 0.55 50.77-0.05 50.15-0.65 50.15-1.65L50.15-1.65 50.1-15.15Q50.1-19.55 48.92-21.7 47.75-23.85 44.9-23.85L44.9-23.85Q43.15-23.85 41.52-22.63 39.9-21.4 38.87-18.75 37.85-16.1 37.85-12.05L37.85-12.05Q37.85-5.6 37.95-3.65 38.05-1.7 38.55-0.35L38.55-0.35Q37.5 0.55 36.25 0.55L36.25 0.55Q35.2 0.55 34.57-0.1 33.95-0.75 33.95-1.85L33.95-1.85 33.9-34.3Q33.9-35.4 34.5-35.95 35.1-36.5 36.15-36.5L36.15-36.5Q36.9-36.5 37.55-36.23 38.2-35.95 38.55-35.6L38.55-35.6Q38.15-34.35 38.02-32.63 37.9-30.9 37.85-27.8L37.85-27.8 37.8-20.25Q38.9-23 41.05-24.53 43.2-26.05 46.05-26.05L46.05-26.05Q50.15-26.05 52.1-23.43 54.05-20.8 54.05-15.65L54.05-15.65 54.1-5.7ZM72.7-26.05Q75.3-26.05 76.87-24.68 78.45-23.3 78.45-20.85L78.45-20.85Q78.45-19.2 77.5-18.13 76.55-17.05 75.25-17.05L75.25-17.05Q74.15-17.05 73.75-17.55L73.75-17.55Q74.3-18.4 74.5-19.13 74.7-19.85 74.7-20.75L74.7-20.75Q74.7-23.85 71.8-23.85L71.8-23.85Q69.55-23.85 68.02-20.98 66.5-18.1 66.5-12.05L66.5-12.05 66.5-9.35Q66.5-4.85 66.59-3.25 66.7-1.65 67.15-0.45L67.15-0.45Q66.09 0.45 64.8 0.45L64.8 0.45Q63.8 0.45 63.15-0.18 62.5-0.8 62.5-1.9L62.5-1.9 62.5-20.3Q62.5-21.7 62.17-22.3 61.85-22.9 61.1-22.9L61.1-22.9Q60.15-22.9 59.8-22.1L59.8-22.1Q59.2-22.95 59.2-23.7L59.2-23.7Q59.2-24.75 60-25.38 60.8-26 62.2-26L62.2-26Q64.15-26 65.12-24.63 66.09-23.25 66.05-20.55L66.05-20.55 66.05-20.3Q66.9-23.15 68.59-24.6 70.3-26.05 72.7-26.05L72.7-26.05ZM86.29-30Q85.19-30 84.39-30.8 83.59-31.6 83.59-32.7L83.59-32.7Q83.59-33.85 84.39-34.63 85.19-35.4 86.29-35.4L86.29-35.4Q87.44-35.4 88.22-34.63 88.99-33.85 88.99-32.7L88.99-32.7Q88.99-31.6 88.22-30.8 87.44-30 86.29-30L86.29-30ZM88.49-5.7Q88.49-2.05 89.14-0.35L89.14-0.35Q88.09 0.55 86.84 0.55L86.84 0.55Q85.84 0.55 85.22-0.05 84.59-0.65 84.59-1.65L84.59-1.65 84.54-19.8Q84.54-23.25 83.89-25.15L83.89-25.15Q84.94-26.05 86.19-26.05L86.19-26.05Q87.19-26.05 87.82-25.48 88.44-24.9 88.44-23.85L88.44-23.85 88.49-5.7ZM104.14 0.65Q99.49 0.65 97.17-1.03 94.84-2.7 94.84-5.4L94.84-5.4Q94.84-6.65 95.44-7.43 96.04-8.2 97.34-8.2L97.34-8.2Q97.84-8.2 98.14-8.15L98.14-8.15Q97.99-7.55 97.99-6.95L97.99-6.95Q97.99-6.4 98.04-6.05L98.04-6.05Q98.14-3.85 99.87-2.55 101.59-1.25 104.49-1.25L104.49-1.25Q107.34-1.25 109.04-2.25 110.74-3.25 110.74-5.2L110.74-5.2Q110.74-7 109.44-8.05 108.14-9.1 105.34-10.35L105.34-10.35 103.74-11.1Q100.94-12.4 99.47-13.3 97.99-14.2 96.92-15.75 95.84-17.3 95.84-19.65L95.84-19.65Q95.84-22.9 98.39-24.5 100.94-26.1 104.84-26.1L104.84-26.1Q108.94-26.1 111.24-24.78 113.54-23.45 113.54-21.1L113.54-21.1Q113.54-19 111.69-18.8L111.69-18.8Q111.19-18.7 111.04-18.7L111.04-18.7Q110.74-18.7 110.24-18.8L110.24-18.8Q110.34-19.4 110.34-19.8L110.34-19.8Q110.34-20.45 110.19-20.9L110.19-20.9Q109.99-22.55 108.57-23.4 107.14-24.25 104.69-24.25L104.69-24.25Q102.44-24.25 100.99-23.43 99.54-22.6 99.54-20.8L99.54-20.8Q99.54-19.3 100.39-18.23 101.24-17.15 102.42-16.48 103.59-15.8 105.99-14.65L105.99-14.65 107.09-14.15Q109.54-13 111.02-12.13 112.49-11.25 113.52-9.85 114.54-8.45 114.54-6.5L114.54-6.5Q114.54-3.55 112.09-1.45 109.64 0.65 104.14 0.65L104.14 0.65Z" opacity="1" transform="matrix(1,0,0,1,0,0)" fill="#ffffff" class="wordmark-text-0" data-fill-palette-color="quaternary" id="text-0"></path></svg></g></svg></g></svg></g></svg></g><g transform="matrix(1,0,0,1,57.798021168079636,0)"><svg viewBox="0 0 97.56239889099784 98.06300608042869" height="98.06300608042869" width="97.56239889099784"><g><svg xmlns="http://www.w3.org/2000/svg" viewBox="0.47846160639078406 0.40938044022739334 35.02153839360922 35.201239119545214" x="0" y="0" height="98.06300608042869" width="97.56239889099784" class="icon-icon-0" data-fill-palette-color="quaternary" id="icon-0"><path d="M20.61 20.51H35.5a17.6 17.6 0 1 1 0-5H20.61V13a2.51 2.51 0 1 0-5 0V23a2.51 2.51 0 1 0 5 0Z" fill="#ffffff" data-fill-palette-color="quaternary"></path></svg></g></svg></g><g></g></svg></g></svg></g></svg></g></svg></g><defs></defs></svg><rect width="342.85155851775386" height="342.85155851775386" fill="none" stroke="none" visibility="hidden"></rect></g></svg></g></svg>